<svg width="21" height="24" viewBox="0 0 21 24" fill="none" xmlns="http://www.w3.org/2000/svg">
<g clip-path="url(#clip0_1_20)">
<path d="M10.6072 13.9764H8.98524C8.89283 13.9777 8.8036 13.9426 8.73686 13.8787C8.70599 13.8491 8.68229 13.8129 8.66758 13.7727C8.65288 13.7326 8.64756 13.6896 8.65203 13.6471L8.79547 12.1814C8.80942 12.0251 8.95454 11.9051 9.12812 11.9057H10.7506C10.8455 11.9057 10.9348 11.9408 10.999 12.0039C11.0621 12.0664 11.0933 12.1507 11.0838 12.235L10.9404 13.7012C10.9264 13.8575 10.7813 13.9769 10.6072 13.9764ZM10.8673 11.1059H9.21519C9.17253 11.1067 9.13013 11.0991 9.0904 11.0835C9.05068 11.0679 9.01441 11.0447 8.98368 11.0151C8.95294 10.9855 8.92834 10.9501 8.91127 10.911C8.89421 10.8719 8.88501 10.8298 8.88421 10.7872L9.33407 5.83368C9.34525 5.75456 9.38506 5.68229 9.44596 5.63055C9.50685 5.57881 9.5846 5.55119 9.66449 5.55294H11.3166C11.4991 5.55294 11.6476 5.69582 11.6476 5.87163L11.1843 10.8279C11.1728 10.9042 11.1347 10.974 11.0767 11.0249C11.0186 11.0758 10.9445 11.1045 10.8673 11.1059ZM20.5834 5.32968L16.3036 0.351635C16.2087 0.241289 16.0911 0.152741 15.9588 0.0920521C15.8266 0.0313631 15.6828 -3.48398e-05 15.5372 7.00218e-06H2.71956C2.47009 -0.000923136 2.22917 0.0908431 2.04353 0.257503C1.8579 0.424163 1.74078 0.653834 1.71491 0.90196L0.177794 18.3606C0.153235 18.6413 0.248119 18.9187 0.439003 19.1269C0.533743 19.2295 0.648722 19.3113 0.776682 19.3672C0.904642 19.4231 1.0428 19.4519 1.18244 19.4517H3.69965L3.31677 24L8.26691 19.4551H13.8896C14.1519 19.4551 14.4042 19.3546 14.5929 19.1721L19.874 14.0623C20.0481 13.8938 20.1553 13.6688 20.1759 13.4277L20.8217 6.06922C20.8333 5.93629 20.8181 5.80239 20.7772 5.67539C20.7363 5.54839 20.6704 5.43085 20.5834 5.32968ZM16.6691 12.024C16.649 12.266 16.5417 12.4925 16.3672 12.6614L13.3097 15.5621C13.1215 15.7404 12.8719 15.8395 12.6126 15.8389H5.13351C4.99441 15.8372 4.85712 15.8071 4.73005 15.7505C4.60298 15.6939 4.48881 15.6119 4.39454 15.5096C4.30045 15.4076 4.22832 15.2873 4.18262 15.1562C4.13692 15.0252 4.11863 14.8861 4.12886 14.7477L5.03417 4.52652C5.06004 4.27839 5.17715 4.04872 5.36279 3.88206C5.54842 3.7154 5.78935 3.62363 6.03882 3.62456H13.6451C13.9365 3.62456 14.2144 3.7507 14.4053 3.97061L16.8198 6.74791C17.0018 6.94773 17.0956 7.21229 17.0794 7.48131L16.6691 12.024Z" fill="white"/>
</g>
<defs>
<clipPath id="clip0_1_20">
<rect width="20.6512" height="24" fill="white" transform="translate(0.174438)"/>
</clipPath>
</defs>
</svg>
